<svg xmlns="http://www.w3.org/2000/svg" viewBox="0 0 512 512" role="img" aria-label="CompCheck">
  <rect width="512" height="512" rx="96" fill="#116a5b"/>
  <path d="M132 256c0-77 48-128 119-128 37 0 69 14 91 39l-39 38c-14-16-31-24-52-24-39 0-66 30-66 75s27 75 66 75c21 0 38-8 52-24l39 38c-22 25-54 39-91 39-71 0-119-51-119-128Z" fill="#ffffff"/>
  <path d="M286 256c0-77 48-128 119-128 26 0 50 7 70 20v68c-16-23-38-35-69-35-39 0-66 30-66 75s27 75 66 75c31 0 53-12 69-35v68c-20 13-44 20-70 20-71 0-119-51-119-128Z" fill="#f6f7f4" opacity="0.92"/>
</svg>
